<svg viewBox="0 0 200 187" xmlns="http://www.w3.org/2000/svg" xmlns:xlink="http://www.w3.org/1999/xlink">
    <mask id="mask0" mask-type="alpha">
        <path d="M25.4,-43.2C36.1,-37.7,50.2,-37.4,
        61.6,-31.1C73,-24.8,81.6,-12.4,76.7,-2.8C71.8,6.8,53.5,
        13.5,44.3,23.6C35.1,33.7,35,47,29.1,55.2C23.2,63.4,11.6,
        66.4,2,63C-7.7,59.7,-15.4,49.9,-28.8,46C-42.3,42.2,-61.4,
        44.4,-69.5,37.7C-77.5,31,-74.4,15.5,-69.2,3C-64,-9.5,-56.7,
        -19,-51.3,-30.1C-45.8,-41.2,-42.1,-53.9,-33.9,-60.8C-25.6,
        -67.7,-12.8,-68.8,-2.8,-64C7.3,-59.2,14.6,-48.6,25.4,-43.2Z"/>
    </mask>
    <g mask="url(#mask0)">
        <path d="M25.4,-43.2C36.1,-37.7,50.2,-37.4,61.6,
        -31.1C73,-24.8,81.6,-12.4,76.7,-2.8C71.8,6.8,53.5,13.5,
        44.3,23.6C35.1,33.7,35,47,29.1,55.2C23.2,63.4,11.6,66.4,
        2,63C-7.7,59.7,-15.4,49.9,-28.8,46C-42.3,42.2,-61.4,44.4,
        -69.5,37.7C-77.5,31,-74.4,15.5,-69.2,3C-64,-9.5,-56.7,-19,
        -51.3,-30.1C-45.8,-41.2,-42.1,-53.9,-33.9,-60.8C-25.6,-67.7,
        -12.8,-68.8,-2.8,-64C7.3,-59.2,14.6,-48.6,25.4,-43.2Z"
        fill="#FFC700"/>
        <image xlink:href="assets/img/blob.png" />
    </g>
</svg>


<svg viewBox="0 0 200 200" xmlns="http://www.w3.org/2000/svg">
    <mask id="mask0" mask-type="alpha">
        <path d="M37.4,-67C48.9,-58,59,-49,66.1,-37.8C73.3,-26.6,77.5,
        -13.3,76.8,-0.4C76.1,12.5,70.4,25,65.1,39.2C59.7,53.5,54.6,69.6,
        43.8,79C33,88.4,16.5,91.2,2.4,87.1C-11.7,83,-23.5,72,-36.2,63.7C-49,
        55.4,-62.7,49.8,-68.5,39.6C-74.2,29.4,-72,14.7,-73.4,-0.8C-74.9,-16.4,
        -80,-32.8,-74.5,-43.3C-68.9,-53.8,-52.7,-58.5,-38.5,-65.9C-24.3,-73.3,
        -12.2,-83.3,0.4,-84C12.9,-84.6,25.8,-75.9,37.4,-67Z" transform="translate(100 100)"/>
    </mask>
    <g mask="url(#mask0)">
        <path d="M37.4,-67C48.9,-58,59,-49,66.1,-37.8C73.3,-26.6,77.5,
        -13.3,76.8,-0.4C76.1,12.5,70.4,25,65.1,39.2C59.7,53.5,54.6,69.6,
        43.8,79C33,88.4,16.5,91.2,2.4,87.1C-11.7,83,-23.5,72,-36.2,63.7C-49,
        55.4,-62.7,49.8,-68.5,39.6C-74.2,29.4,-72,14.7,-73.4,-0.8C-74.9,-16.4,
        -80,-32.8,-74.5,-43.3C-68.9,-53.8,-52.7,-58.5,-38.5,-65.9C-24.3,-73.3,
        -12.2,-83.3,0.4,-84C12.9,-84.6,25.8,-75.9,37.4,-67Z" transform="translate(100 100)"/>
        <image xlink:href="assets/img/blob.png" />
</svg>